# xmcd
#
# Track frame offsets:
# 150
# 22951
# 37678
# 55885
# 73525
# 93840
# 116285
# 132117
# 148525
# 161835
# 181710
# 196447
#
# Disc length: 2795 seconds
#
# Revision: 0
# Processed by: cddbd v1.5.2PL0 Copyright (c) Steve Scherf et al.
# Submitted via: Audion 3.0.2 (http://www.panic.com/audion/)
#
DISCID=930ae90c
DTITLE=Les découvertes - Alors chante
DYEAR=1900
DGENRE=
TTITLE0=Le vendeur de bisous
TTITLE1=J'ai tout devant moi
TTITLE2=Le voyeur planétaire
TTITLE3=Monomaniaque
TTITLE4=Débat de boue
TTITLE5=Fleur
TTITLE6=Un dernier cri
TTITLE7=Musicamor
TTITLE8=Minimum
TTITLE9=J'apprends le métier
TTITLE10=Norredine
TTITLE11=One day
EXTD=
EXTT0=
EXTT1=
EXTT2=
EXTT3=
EXTT4=
EXTT5=
EXTT6=
EXTT7=
EXTT8=
EXTT9=
EXTT10=
EXTT11=
PLAYORDER=
